<?xml version="1.0" encoding="UTF-8" standalone="no"?>
<svg
   height="800"
   width="800"
   viewBox="-38.00415 -63.34025 219.57953 380.0415"
   version="1.1"
   id="svg36"
   sodipodi:docname="memcached.svg"
   inkscape:version="1.1 (c68e22c387, 2021-05-23)"
   xmlns:inkscape="http://www.inkscape.org/namespaces/inkscape"
   xmlns:sodipodi="http://sodipodi.sourceforge.net/DTD/sodipodi-0.dtd"
   xmlns="http://www.w3.org/2000/svg"
   xmlns:svg="http://www.w3.org/2000/svg">
  <sodipodi:namedview
     id="namedview38"
     pagecolor="#ffffff"
     bordercolor="#666666"
     borderopacity="1.0"
     inkscape:pageshadow="2"
     inkscape:pageopacity="0.0"
     inkscape:pagecheckerboard="0"
     showgrid="false"
     inkscape:zoom="0.94125"
     inkscape:cx="599.7344"
     inkscape:cy="400"
     inkscape:window-width="3840"
     inkscape:window-height="1537"
     inkscape:window-x="-8"
     inkscape:window-y="-8"
     inkscape:window-maximized="1"
     inkscape:current-layer="svg36" />
  <defs
     id="defs22">
    <radialGradient
       gradientUnits="userSpaceOnUse"
       id="c"
       r="9.2130003"
       fy="142.923"
       fx="62.417"
       cy="142.923"
       cx="62.417"
       gradientTransform="translate(-37.990729,27.414576)">
      <stop
         offset="0%"
         stop-color="#DB7C7C"
         id="stop2" />
      <stop
         offset="100%"
         stop-color="#C83737"
         id="stop4" />
    </radialGradient>
    <radialGradient
       gradientUnits="userSpaceOnUse"
       id="d"
       r="9.2130003"
       fy="142.923"
       fx="96.725998"
       cy="142.923"
       cx="96.725998"
       gradientTransform="translate(-37.990729,27.414576)">
      <stop
         offset="0%"
         stop-color="#DB7C7C"
         id="stop7" />
      <stop
         offset="100%"
         stop-color="#C83737"
         id="stop9" />
    </radialGradient>
    <linearGradient
       gradientUnits="userSpaceOnUse"
       id="a"
       y2="0"
       x2="126.68"
       y1="253.36099"
       x1="126.68"
       gradientTransform="translate(-83.780729,-19.683424)">
      <stop
         offset="0%"
         stop-color="#574C4A"
         id="stop12" />
      <stop
         offset="100%"
         stop-color="#80716D"
         id="stop14" />
    </linearGradient>
    <linearGradient
       gradientUnits="userSpaceOnUse"
       gradientTransform="matrix(1.02091,0,0,0.97952,-37.990729,27.414576)"
       id="b"
       y2="-12.874"
       x2="48.263"
       y1="154.103"
       x1="139.73599">
      <stop
         offset="0%"
         stop-color="#268D83"
         id="stop17" />
      <stop
         offset="100%"
         stop-color="#2EA19E"
         id="stop19" />
    </linearGradient>
  </defs>
  <g
     id="g46"
     transform="matrix(1.1075701,0,0,1.0916338,24.153401,18.458873)">
    <path
       fill="url(#a)"
       d="M -83.780729,151.50658 V 62.486576 c 0,-71.8990003 10.26,-82.17 82.0859999,-82.17 H 87.494271 c 71.824999,0 82.084999,10.2709997 82.084999,82.171 v 89.019004 c 0,71.9 -10.26,82.17 -82.085999,82.17 H -1.6947291 c -71.8249999,0 -82.0859999,-10.27 -82.0859999,-82.17 z"
       id="path24"
       style="fill:url(#a)" />
    <path
       fill="url(#b)"
       d="m -29.099729,28.069576 c -12.453,78.928004 -5.938,152.825004 -5.938,152.825004 H 3.8902709 c -3.70399998,-19.704 -16.9919999,-109.724004 -5.938,-110.021004 5.924,0.94 32.9900001,76.371004 32.9900001,76.371004 0,0 5.96,-0.742 11.958,-0.742 5.998,0 11.959,0.742 11.959,0.742 0,0 27.066,-75.430004 32.99,-76.371004 11.053,0.297 -2.234,90.317004 -5.938,110.020004 h 38.926999 c 0,0 6.516,-73.896 -5.938,-152.824004 H 78.859271 c -6.86,0.081 -32.96,45.855 -35.959,45.855 -2.999,0 -29.099,-45.774 -35.9590001,-45.855 z"
       id="path26"
       style="fill:url(#b)" />
    <path
       fill="url(#c)"
       d="m 35.223271,171.68158 a 9.2135,9.2135 0 1 1 -18.427,0 9.2135,9.2135 0 0 1 18.427,0 z"
       id="path28"
       style="fill:url(#c)" />
    <path
       fill="url(#d)"
       d="m 69.004271,171.68158 a 9.213,9.213 0 1 1 -18.426,0 9.213,9.213 0 0 1 18.426,0 z"
       id="path30"
       style="fill:url(#d)" />
    <path
       opacity="0.1"
       d="m 113.06527,30.678576 c 5.617,38.026 6.936,74.520004 6.832,101.705004 -0.106,27.806 -1.699,45.871 -1.699,45.871 H 85.431271 l -3.521,2.64 h 38.927999 c 0,0 6.515,-73.898 -5.939,-152.825004 z m -103.1549991,-0.96 c 10.2260001,11.375 27.9130001,41.567 30.3500001,41.567 -6.484,-8.293 -22.411,-34.749 -30.3500001,-41.567 z m -14.598,38.515 c -11.0539999,0.298 2.234,90.318004 5.938,110.021004 H -32.731729 l -2.307,2.64 H 3.8892709 c -3.68499998,-19.604 -16.8559999,-108.825004 -6.103,-110.021004 -1.001,-1.504 -1.866,-2.543 -2.474,-2.64 z m 89.8970001,0 c -5.924,0.94 -32.99,76.372004 -32.99,76.372004 0,0 -5.96,-0.743 -11.959,-0.743 a 93.93,93.93 0 0 0 -8.67,0.412 l -0.65,2.97 c 0,0 5.961,-0.742 11.96,-0.742 5.998,0 11.958,0.742 11.958,0.742 0,0 26.862,-74.936004 32.907,-76.371004 -0.651,-1.65 -1.456,-2.61 -2.556,-2.64 z"
       id="path32" />
    <path
       fill="#ffffff"
       opacity="0.3"
       d="m -29.100729,28.069576 c -12.453,78.927004 -5.938,152.824004 -5.938,152.824004 l 2.292,-2.576 c -1.172,-17.434 -4.306,-80.481004 6.286,-147.610004 H 9.5792709 c 0.7640001,0.01 1.7880001,0.635 2.9700001,1.65 -2.36,-2.625 -4.3220001,-4.273 -5.6080001,-4.288 z m 107.96,0 c -6.86,0.08 -32.96,45.855 -35.96,45.855 1.223,1.564 2.217,2.64 2.64,2.64 2.999,0 29.098,-45.775 35.958,-45.856 h 31.805999 l 1.596,-2.64 z m -78.43500008,45.443 C 9.1792709,86.660576 30.940271,147.24458 30.940271,147.24458 l 0.636,-2.954 c -5.372,-14.732 -25.8440001,-69.962004 -30.98700008,-70.778004 -0.056,0.001 -0.11,-0.006 -0.165,0 z m 90.06200008,0 c 5.872,14.977 -5.244,89.648004 -8.577,107.381004 l 3.531,-2.756 c 4.508,-26.446 15.361999,-104.348004 5.046,-104.625004 z"
       id="path34" />
  </g>
</svg>
